<?xml version="1.0" standalone="no"?>
<!DOCTYPE svg PUBLIC "-//W3C//DTD SVG 20010904//EN"
 "http://www.w3.org/TR/2001/REC-SVG-20010904/DTD/svg10.dtd">
<svg version="1.0" xmlns="http://www.w3.org/2000/svg"
 width="16.000000pt" height="20.000000pt" viewBox="0 0 16.000000 20.000000"
 preserveAspectRatio="xMidYMid meet">

<g transform="translate(0.000000,20.000000) scale(0.100000,-0.100000)"
fill="#000000" stroke="none">
<path d="M86 174 c-9 -24 -7 -28 9 -14 17 14 20 30 6 30 -5 0 -12 -7 -15 -16z"/>
<path d="M10 121 c-14 -26 -13 -37 6 -77 15 -32 20 -34 64 -34 60 0 80 19 59
56 -10 19 -10 30 -2 44 17 25 8 30 -58 30 -47 0 -60 -4 -69 -19z"/>
</g>
</svg>
