<?xml version="1.0" standalone="no"?>
<!DOCTYPE svg PUBLIC "-//W3C//DTD SVG 20010904//EN"
 "http://www.w3.org/TR/2001/REC-SVG-20010904/DTD/svg10.dtd">
<svg version="1.0" xmlns="http://www.w3.org/2000/svg"
 width="10.000000pt" height="18.000000pt" viewBox="0 0 10.000000 18.000000"
 preserveAspectRatio="xMidYMid meet">

<g transform="translate(0.000000,18.000000) scale(0.100000,-0.100000)"
fill="#000000" stroke="none">
<path d="M58 159 c-10 -5 -18 -21 -18 -34 0 -14 -6 -25 -12 -25 -10 0 -10 -2
-1 -8 6 -4 13 -25 16 -47 l4 -40 1 43 c2 33 6 42 20 42 16 1 16 1 0 11 -22 12
-24 49 -3 49 8 0 15 5 15 10 0 12 0 12 -22 -1z"/>
</g>
</svg>
