<?xml version="1.0" standalone="no"?>
<!DOCTYPE svg PUBLIC "-//W3C//DTD SVG 20010904//EN"
 "http://www.w3.org/TR/2001/REC-SVG-20010904/DTD/svg10.dtd">
<svg version="1.0" xmlns="http://www.w3.org/2000/svg"
 width="19.000000pt" height="16.000000pt" viewBox="0 0 19.000000 16.000000"
 preserveAspectRatio="xMidYMid meet">

<g transform="translate(0.000000,16.000000) scale(0.100000,-0.100000)"
fill="#000000" stroke="none">
<path d="M159 135 c-8 -9 -29 -31 -46 -48 -30 -29 -47 -67 -23 -52 5 3 20 -1
34 -10 l24 -16 15 68 c8 37 14 69 12 71 -2 2 -9 -4 -16 -13z"/>
<path d="M65 109 c-60 -25 -61 -25 -38 -31 10 -3 38 8 63 23 53 33 45 36 -25
8z"/>
</g>
</svg>
