<?xml version="1.0" standalone="no"?>
<!DOCTYPE svg PUBLIC "-//W3C//DTD SVG 20010904//EN"
 "http://www.w3.org/TR/2001/REC-SVG-20010904/DTD/svg10.dtd">
<svg version="1.0" xmlns="http://www.w3.org/2000/svg"
 width="17.000000pt" height="15.000000pt" viewBox="0 0 17.000000 15.000000"
 preserveAspectRatio="xMidYMid meet">

<g transform="translate(0.000000,15.000000) scale(0.100000,-0.100000)"
fill="#000000" stroke="none">
<path d="M94 115 c-6 -26 -12 -26 -61 -8 -8 3 -13 -3 -13 -16 0 -12 5 -21 10
-21 6 0 10 -7 10 -15 0 -8 6 -15 13 -15 7 0 4 -7 -7 -15 -19 -14 -19 -15 8
-15 58 0 127 106 80 124 -27 10 -33 7 -40 -19z"/>
</g>
</svg>
